<?xml version="1.0" standalone="no"?><!DOCTYPE svg PUBLIC "-//W3C//DTD SVG 1.1//EN" "http://www.w3.org/Graphics/SVG/1.1/DTD/svg11.dtd"><svg t="1757420022496" class="icon" viewBox="0 0 1024 1024" version="1.1" xmlns="http://www.w3.org/2000/svg" p-id="1757" xmlns:xlink="http://www.w3.org/1999/xlink" width="200" height="200"><path d="M512 74.850331L138.312901 293.05049 512 545.76657l373.687099-252.71608zM138.312901 300.91698v430.03253l367.872-185.184636z" fill="#E24329" p-id="1758"></path><path d="M138.312901 730.94951L512 545.764874 890.913907 730.951205 514.614252 949.149669z" fill="#FCA326" p-id="1759"></path><path d="M890.913907 300.91698L514.614252 545.76657 890.913907 730.94951z" fill="#FC6D26" p-id="1760"></path><path d="M474.332397 1013.800689L100.645298 795.60053C77.683285 782.185113 63.576159 757.566728 63.576159 730.94951V293.05049a74.845245 74.845245 0 0 1 37.069139-64.576424L474.332397 10.199311a74.658755 74.658755 0 0 1 75.335206 0l373.687099 218.274755A74.845245 74.845245 0 0 1 960.423841 293.05049v437.89902c0 26.617219-14.107126 51.235603-37.069139 64.65102L549.667603 1013.800689a74.658755 74.658755 0 0 1-75.335206 0zM512 949.149669l373.687099-218.200159V293.05049L512 74.850331 138.312901 293.05049v437.89902L512 949.149669z m167.710517-591.746543L506.618914 481.619073l-178.472689-124.514331a37.331921 37.331921 0 0 0-37.98294-4.238411 37.413298 37.413298 0 0 0-21.837987 31.401537 37.428556 37.428556 0 0 0 17.145219 34.195496l188.338013 131.550093a30.864106 30.864106 0 0 0-1.717404 10.175576V774.05245l0.298384 4.489325c2.315868 15.938119 16.890914 28.285457 34.527788 28.285457 19.283073 0 34.902464-14.666596 34.902464-32.774782V560.189033l-0.298385-4.489324a30.860715 30.860715 0 0 0-1.495311-5.984636l183.106119-131.550093a37.430252 37.430252 0 0 0 16.824795-34.463364 37.411603 37.411603 0 0 0-22.31947-31.177748 37.331921 37.331921 0 0 0-38.001589 4.879258h0.074596z" fill="#FFFFFF" p-id="1761"></path></svg>